# xmcd CD database file
#
# Track frame offsets:
#	150
#	15002
#	30762
#	44775
#	61960
#	74897
#	94035
#	106945
#	120107
#	136477
#	153650
#	171605
#	185080
#	201287
#	216317
#	236447
#	256395
#
# Disc length: 3682 seconds
#
# Revision: 0
# Processed by: cddbd v1.5PL3 Copyright (c) Steve Scherf et al.
# Submitted via: CDex 1.51
#
DISCID=f30e6011
DTITLE=California Cajun Orchestra - Not Lonesome anymore
DYEAR=1991
DGENRE=Country
TTITLE0=Hix Wagon Wheel Special
TTITLE1=Valse Criminelle
TTITLE2=Monsieur Leonard
TTITLE3=Sugar Bee
TTITLE4=Lake Charles Two-Step
TTITLE5=Not Lonesome Anymore
TTITLE6=Jplie Bassette
TTITLE7=Mon Coeur Fait P'us Mal
TTITLE8=L'Anse a Paille
TTITLE9=Tell Me Pretty Mama
TTITLE10=Veuve de Basile
TTITLE11=Shamrock Two-Step
TTITLE12=Louisiana Waltz
TTITLE13=Midland Two-Step
TTITLE14=Hathaway Two-Step
TTITLE15=Valse du Mariage
TTITLE16=Lake Arthur Stomp
EXTD=YEAR: 1991
EXTT0=
EXTT1=
EXTT2=
EXTT3=
EXTT4=
EXTT5=
EXTT6=
EXTT7=
EXTT8=
EXTT9=
EXTT10=
EXTT11=
EXTT12=
EXTT13=
EXTT14=
EXTT15=
EXTT16=
PLAYORDER=
